<?xml version="1.0" standalone="no"?>
<!DOCTYPE svg PUBLIC "-//W3C//DTD SVG 1.1//EN" "http://www.w3.org/Graphics/SVG/1.1/DTD/svg11.dtd" >
<!--
2013-9-30: Created.
-->
<svg>
<metadata>
Created by iconfont
</metadata>
<defs>

<font id="iconfont" horiz-adv-x="1024" >
  <font-face
    font-family="iconfont"
    font-weight="500"
    font-stretch="normal"
    units-per-em="1024"
    ascent="896"
    descent="-128"
  />
    <missing-glyph />
    
    <glyph glyph-name="x" unicode="x" horiz-adv-x="1001"
d="M281 543q-27 -1 -53 -1h-83q-18 0 -36.5 -6t-32.5 -18.5t-23 -32t-9 -45.5v-76h912v41q0 16 -0.5 30t-0.5 18q0 13 -5 29t-17 29.5t-31.5 22.5t-49.5 9h-133v-97h-438v97zM955 310v-52q0 -23 0.5 -52t0.5 -58t-10.5 -47.5t-26 -30t-33 -16t-31.5 -4.5q-14 -1 -29.5 -0.5
t-29.5 0.5h-32l-45 128h-439l-44 -128h-29h-34q-20 0 -45 1q-25 0 -41 9.5t-25.5 23t-13.5 29.5t-4 30v167h911zM163 247q-12 0 -21 -8.5t-9 -21.5t9 -21.5t21 -8.5q13 0 22 8.5t9 21.5t-9 21.5t-22 8.5zM316 123q-8 -26 -14 -48q-5 -19 -10.5 -37t-7.5 -25t-3 -15t1 -14.5
t9.5 -10.5t21.5 -4h37h67h81h80h64h36q23 0 34 12t2 38q-5 13 -9.5 30.5t-9.5 34.5q-5 19 -11 39h-368zM336 498v228q0 11 2.5 23t10 21.5t20.5 15.5t34 6h188q31 0 51.5 -14.5t20.5 -52.5v-227h-327z" />
    

    
    <glyph glyph-name="icon60" unicode="&#58941;" d="M626.403 290.398c16.954 0 30.699 13.745 30.699 30.699s-13.745 30.699-30.699 30.699h-66.243l71.505 71.522c11.987 11.99 11.985 31.428-0.005 43.415-11.992 11.987-31.428 11.985-43.416-0.005l-71.509-71.526-71.528 71.52c-11.99 11.988-31.427 11.987-43.415-0.002-11.988-11.989-11.987-31.427 0.002-43.415l71.517-71.508h-66.239c-16.954 0-30.699-13.745-30.699-30.699s13.745-30.699 30.699-30.699h78.966v-40.932h-78.966c-16.954 0-30.699-13.745-30.699-30.699s13.745-30.699 30.699-30.699h78.966v-54.543c0-16.954 13.745-30.699 30.699-30.699s30.699 13.745 30.699 30.699v54.543h78.966c16.954 0 30.699 13.745 30.699 30.699s-13.745 30.699-30.699 30.699h-78.966v40.932h78.965zM839.755 353.4c-10.222 60.952-37.26 117.544-78.189 163.657-11.253 12.681-30.657 13.836-43.339 2.581-12.68-11.255-13.836-30.658-2.58-43.339 68.659-77.354 86.28-188.543 44.89-283.275-28.434-65.129-80.527-115.286-146.687-141.229-66.157-25.942-138.459-24.567-203.587 3.872-134.448 58.718-196.063 215.865-137.348 350.309 28.433 65.129 80.53 115.285 146.693 141.228 66.162 25.943 138.46 24.568 203.581-3.872 15.54-6.785 33.634 0.31 40.42 15.847 6.787 15.538-0.309 33.634-15.846 40.42-80.15 35.003-169.137 36.696-250.567 4.767-81.435-31.931-145.555-93.662-180.549-173.82-35.007-80.159-36.705-169.148-4.78-250.577 31.926-81.43 93.657-145.557 173.824-180.569 42.017-18.348 86.448-27.542 130.956-27.54 40.403 0.001 80.873 7.582 119.618 22.775 81.428 31.929 145.545 93.661 180.538 173.815 25.514 58.395 33.45 122.349 22.952 184.95z"  horiz-adv-x="1024" />

    
    <glyph glyph-name="tuijiandamuzhi" unicode="&#59014;" d="M748.402986 299.37725c2.488988 3.290458 6.661466 8.816172 7.390441 10.901404 0.427921 9.895539-20.486827 41.717732-31.746677 46.364446-2.489995 1.004858-18.702649 6.104666-94.240208 6.104666-37.731525 0-71.164713-1.25557-71.314737-1.25557l-11.588091-0.452086-5.631436 10.122085c-15.434342 27.904453 5.530748 70.62805 24.006851 108.329369 4.523876 9.16757 8.54633 17.355454 10.983968 23.509457 13.776024 34.258823 11.814637 79.996995-4.347674 102.149188-10.482545 14.140512-26.367967 21.023489-37.429463 21.676949-7.289754-103.10471-27.752416-138.544594-60.278412-163.937908-15.585373-12.532537-26.116248-21.022483-31.59766-35.288853-39.389843-104.284764-79.533834-166.223508-112.992194-174.311711l-4.448361-0.525587-40.998825 0 0-223.338328 167.312944-22.908354c0.125859 0 73.87924-7.132682 137.549804-7.132682 0.025172 0 0.025172 0 0.025172 0 44.945764 0 65.683301 3.515997 75.159982 6.456064 11.588091 3.488812 35.869819 25.466816 40.720928 36.796141 0.200368 1.205226-0.050344 7.433737-0.201374 11.554864-0.400735 10.674858-0.804491 21.701114 3.971104 30.843513 3.671056 7.610946 10.58424 14.442573 17.897152 21.673929 4.80278 4.748409 14.781889 14.59159 15.183631 18.51235-0.052357 2.914895-3.594533 11.704888-5.706951 16.977877-4.449368 11.075593-9.024595 22.555949-8.344956 33.456346 1.154882 13.13666 9.978102 23.234581 18.552625 33.028425 2.711507 3.117276 7.012864 8.013695 8.822213 10.902411-1.332092 3.515997-5.17935 9.893525-7.641152 13.939137-7.341104 12.131802-14.957085 24.691524-13.373275 38.227913C735.608662 282.348022 742.119097 291.01417 748.402986 299.37725zM519.634597 812c-278.22796 0-503.777379-225.548412-503.777379-503.777379s225.549419-503.777379 503.777379-503.777379c278.228967 0 503.778386 225.548412 503.778386 503.777379S797.863564 812 519.634597 812zM779.800278 252.961453c6.610115-10.951748 13.447784-22.254894 13.447784-34.286009 0-13.662248-9.426337-24.4388-18.526447-34.837775-3.242128-3.691193-8.670176-9.921718-9.600525-12.38352 0.32522-1.079367 3.871423-9.970048 6.006999-15.270222 4.123141-10.298288 8.396306-20.921795 8.396306-31.021729 0-19.213133-14.603673-33.655707-26.343802-45.256887-3.845245-3.794901-9.652883-9.519976-10.7836-11.883105-0.37657-1.579782-0.100687-8.387245 0.05135-12.458028 0.352405-9.494804 0.703804-19.315834-2.765878-27.651728-9.325649-21.703128-42.380254-51.492446-64.426725-58.097527-17.470238-5.448185-45.723069-8.112368-86.193286-8.112368-65.608793 0-138.858738 7.083345-141.948828 7.409572l-200.619266 27.352687L246.494361 290.335538l75.4117 0c6.233545 3.439475 38.659861 26.523025 85.54184 150.548523 9.10011 23.860855 25.916888 37.399257 42.205058 50.484567 22.146152 17.330283 41.325052 40.689715 47.836493 146.682134 0.9817 12.356334 10.809779 26.448516 35.318053 26.448516 19.380274 0 49.218929-9.720343 69.554725-37.097196 23.779298-32.652862 27.62555-92.078453 8.999423-138.369398-2.640019-6.706775-7.089386-15.89851-12.142878-26.196798-6.735974-13.714605-22.372698-45.561969-25.363108-63.269829 13.599821 0.351398 34.086648 0.75314 56.00726 0.75314 77.825172 0 99.240335-5.0988 108.59317-8.941024 24.131704-9.945883 56.483511-55.583367 54.771828-85.02028-0.828656-11.40182-7.866692-20.721428-14.655023-29.736961-2.010724-2.688349-5.153171-6.856799-6.58595-9.369952C773.265678 263.710819 777.261954 257.104731 779.800278 252.961453z"  horiz-adv-x="1024" />

    
    <glyph glyph-name="122" unicode="&#58939;" d="M496.64-7.2l-332.8 343.04 84.48 69.12 192-153.6c79.36 94.72 253.44 284.16 494.08 432.64l20.48-48.64C734.72 430.56 555.52 141.28 496.64-7.2L496.64-7.2 496.64-7.2zM916.48 366.56c2.56-20.48 5.12-43.52 5.12-66.56 0-225.28-184.32-409.6-409.6-409.6-225.28 0-409.6 184.32-409.6 409.6 0 225.28 184.32 409.6 409.6 409.6 53.76 0 107.52-10.24 153.6-30.72L665.6 760.8c-48.64 15.36-102.4 25.6-153.6 25.6-66.56 0-130.56-12.8-189.44-38.4-58.88-25.6-110.08-58.88-153.6-104.96-43.52-43.52-79.36-97.28-104.96-153.6C38.4 430.56 25.6 366.56 25.6 300c0-66.56 12.8-130.56 38.4-189.44 25.6-58.88 58.88-110.08 104.96-153.6 43.52-43.52 97.28-79.36 153.6-104.96 58.88-25.6 122.88-38.4 189.44-38.4s130.56 12.8 189.44 38.4c58.88 25.6 110.08 58.88 153.6 104.96 43.52 43.52 79.36 97.28 104.96 153.6 25.6 58.88 38.4 122.88 38.4 189.44 0 23.04-2.56 43.52-5.12 66.56L916.48 366.56 916.48 366.56zM916.48 366.56"  horiz-adv-x="1024" />

    
    <glyph glyph-name="youxiang" unicode="&#58887;" d="M559.705 175.998825l-48.249911 48.250934 144.721079 144.722102 0.25071-0.25071 238.780315 238.735289c-18.687618 10.683317-40.325427 16.793478-63.391772 16.793478L192.216301 624.249919c-23.715121 0-45.919842-6.463202-64.960501-17.712407L370.808816 362.961984l0.01535 0.01535 135.695518-135.728264-45.220924-45.220924L325.602218 317.72264 82.01748 561.306354c-11.254322-19.044752-17.720593-41.253566-17.720593-64.97585l0-383.761314c0-22.928199 6.03853-44.448328 16.60519-63.061244l255.943207 255.940137 48.220235-48.220235L129.070122 1.283618c18.631336-10.602476 40.181141-16.662495 63.146179-16.662495l639.598096 0c22.957875 0 44.499493 6.055926 63.125713 16.650215l-255.014044 254.966972L559.705 175.998825zM942.921915 559.757069 704.161043 321.017686l0.265036-0.264013-16.285918-16.288988 254.978229-254.977205c10.5728 18.619056 16.616446 40.146349 16.616446 63.082734L959.734836 496.330504C959.734836 519.410152 953.618535 541.061264 942.921915 559.757069z"  horiz-adv-x="1024" />

    
    <glyph glyph-name="chongzhi" unicode="&#58980;" d="M567.296 244.704l44.84096-44.4416c11.47904 15.98464 11.47904 29.696-0.39936 41.58464C602.112 251.2576 587.35616 252.2816 567.296 244.704zM697.00608 217.16864c0.41984 19.456-6.9632 36.864-22.1184 51.82464-13.91616 13.7216-29.68576 20.6848-47.7184 20.87936-18.0224 0-40.54016-5.9392-67.584-18.21696l-55.296 54.8864c17.62304 14.5408 36.6592 24.36096 57.35424 29.0816l-36.2496 36.0448c-14.9504-4.49536-32.3584-15.98464-52.224-34.2016l-25.3952 25.1904-19.6608-19.8656 25.8048-25.8048c-14.73536-17.408-22.1184-36.6592-22.1184-57.5488s7.38304-38.5024 21.71904-52.8384c14.32576-14.336 30.72-21.69856 49.3568-22.1184 18.62656-0.6144 40.74496 5.33504 66.56 17.62304l53.23776-52.8384c-7.97696-7.38304-19.2512-14.7456-33.9968-21.92384-14.73536-7.15776-26.81856-11.264-36.23936-12.0832l37.05856-36.864c23.7568 7.15776 45.2608 20.26496 64.7168 39.51616l29.4912-29.27616 19.6608 19.85536-30.3104 30.32064C688.41472 178.25664 696.60672 197.71264 697.00608 217.16864zM486.68672 264.69248c-11.8784 11.6736-12.29824 25.6-1.44384 41.3696l46.70464-46.4896C511.67232 253.21344 496.50688 254.85184 486.68672 264.69248zM641.71008 189.93024l-44.84096 44.4416c20.06016 7.5776 34.80576 6.56384 44.4416-3.072C652.98432 219.62624 653.18912 205.91488 641.71008 189.93024zM512.41984 775.136c-262.144 0-475.136-212.98176-475.136-475.136 0-262.144 212.992-475.136 475.136-475.136S987.5456 37.856 987.5456 300C987.5456 562.15424 774.56384 775.136 512.41984 775.136zM830.88384 175.42016l-194.56-194.56c-24.576-24.576-63.488-24.576-88.064 0l-290.816 290.79552 52.224 230.41024 229.376 53.248 291.84-291.84C855.45984 238.89792 855.45984 199.97568 830.88384 175.42016zM351.31392 451.27552c-14.336-14.32576-14.336-37.888 0-53.248 15.36-14.336 38.912-14.336 53.248 0 14.32576 15.36 14.32576 38.92224 0 53.248C389.20192 465.61152 365.63968 465.61152 351.31392 451.27552z"  horiz-adv-x="1024" />

    
    <glyph glyph-name="cha" unicode="&#59082;" d="M511.999 896C229.229 896 0 666.77 0 384c0-282.771 229.23-512 511.999-512C794.769-128 1024 101.229 1024 384 1024 666.77 794.769 896 511.999 896zM511.999-41.926C276.767-41.926 86.073 148.768 86.073 384S276.768 809.927 511.999 809.927c235.23 0 425.927-190.694 425.927-425.927S747.23-41.926 511.999-41.926zM691.691 563.692c-16.717 16.717-43.823 16.717-60.541 0L512 444.541 392.851 563.692c-16.718 16.717-43.825 16.717-60.542 0-16.719-16.719-16.719-43.824 0-60.542L451.459 384l-119.15-119.15c-16.719-16.718-16.719-43.824 0-60.541 16.717-16.719 43.824-16.719 60.542 0L512 323.459l119.15-119.15c16.719-16.719 43.824-16.719 60.541 0 16.719 16.717 16.719 43.823 0 60.541L572.541 384l119.15 119.15C708.408 519.868 708.408 546.974 691.691 563.692z"  horiz-adv-x="1024" />

    
    <glyph glyph-name="chongzhi1" unicode="&#59036;" d="M457.823667-127.998978c-14.696272 2.604519-29.450785 4.91783-44.077576 7.862602-62.996867 12.683364-121.486659 36.53479-175.494921 71.364229-1.25679 0.810272-2.466579 1.693091-4.445768 3.05819 11.466423 14.204795 22.713163 28.137797 33.968077 42.081016 113.980658-69.851993 235.465273-90.413286 364.415019-56.940773 110.744679 28.745756 198.418571 92.025656 262.808125 186.503586 127.418096 186.9593 97.576991 439.33811-70.588697 593.777196C658.112096 872.428541 407.797284 879.208056 234.48693 743.01082 137.378936 666.697086 79.177286 566.817001 62.354689 444.25032c-16.815445-122.511505 12.948005-233.933624 85.574133-335.57628-13.411893-11.831199-26.891224-23.721661-40.841596-36.025944-5.866043 8.373493-13.900305 19.05621-21.11612 30.265144-48.889141 75.945894-77.18327 158.852157-81.453291 249.22355-7.633724 161.573159 48.06252 298.17502 166.217152 408.241236C243.786156 828.425556 330.824501 870.083555 429.435534 886.720188c18.259221 3.080669 36.83315 4.291479 55.255856 6.411674 2.758808 0.317774 5.489006 0.888949 8.232487 1.34262 15.261316 0 30.521611 0 45.781906 0 2.738372-0.460823 5.461418-1.180157 8.218182-1.346707 81.381767-4.901482 157.611715-27.414376 227.488232-69.312493 125.719896-75.381871 205.995075-184.673577 240.399452-327.335619 3.553753-14.737143 6.148054-29.707252 9.187852-44.569052 0-46.290752 0-92.582527 0-138.873279-0.542566-2.192741-1.260877-4.359938-1.602152-6.583333-5.438939-35.491552-14.132249-70.150353-26.804373-103.758764-31.956191-84.756708-82.637535-156.365143-152.172777-214.340979-66.827523-55.717701-143.07382-92.147248-228.550883-108.915691-14.138379-2.773113-28.390177-4.973007-42.588841-7.438563C534.128205-127.998978 495.975936-127.998978 457.823667-127.998978zM524.928092 503.479882c48.79105 48.802289 96.763653 96.785111 144.338784 144.371481 12.963332-13.058357 25.779527-25.967535 39.410081-39.697202-37.996959-37.907042-76.766383-76.584506-116.635244-116.359363 54.36282 0 107.323757 0 160.823172 0 0-18.429858 0-36.076011 0-54.495651-66.584339 0-133.079783 0-200.189317 0 0-36.96496 0-73.16665 0-110.175547 66.455594 0 132.955125 0 200.092248 0 0-18.404314 0-36.021857 0-54.45478-66.404505 0-132.898928 0-200.44374 0 0-61.356909 0-121.920916 0-182.955964-18.70063 0-36.347805 0-54.788903 0 0 60.810256 0 121.198517 0 182.362309-67.278128 0-133.770506 0-200.832017 0 0 18.399205 0 36.027987 0 54.422083 66.507705 0 133.007236 0 200.164794 0 0 36.928176 0 73.104321 0 110.327792-66.573099 0-133.249398 0-200.328279 0 0 18.495252 0 35.956463 0 54.522218 53.04881 0 106.18345 0 160.118143 0-39.645091 39.665526-78.338904 78.379775-116.653636 116.714943 14.063789 14.028027 26.944357 26.876919 40.390991 40.289834C428.098023 600.536786 476.176891 552.345522 524.928092 503.479882z"  horiz-adv-x="1025" />

    
    <glyph glyph-name="shouji" unicode="&#58907;" d="M750.210333 831.427332 273.78148 831.427332c-32.896224 0-59.551304-26.656103-59.551304-59.551304l0-774.202771c0-32.888038 26.656103-59.551304 59.551304-59.551304L750.210333-61.878047c32.888038 0 59.559491 26.663266 59.559491 59.551304l0 774.202771C809.769824 804.771229 783.098371 831.427332 750.210333 831.427332zM750.210333-2.326742 273.78148-2.326742 273.78148 176.335357 750.210333 176.335357 750.210333-2.326742zM750.210333 235.887684 273.78148 235.887684 273.78148 771.875005 750.210333 771.875005 750.210333 235.887684zM482.219743 57.224562l59.551304 0c16.447601 0 29.776164 13.335726 29.776164 29.783327 0 16.440437-13.32754 29.767977-29.776164 29.767977l-59.551304 0c-16.447601 0-29.776164-13.32754-29.776164-29.767977C452.444603 70.560288 465.772142 57.224562 482.219743 57.224562z"  horiz-adv-x="1024" />

    
    <glyph glyph-name="gantanhao" unicode="&#58956;" d="M512.000012 893.689037c-282.180781 0-510.844518-228.663737-510.844518-510.844518 0-282.180781 228.663737-510.844518 510.844518-510.844518 282.180781 0 510.844518 228.663737 510.844518 510.844518C1022.84453 664.90367 794.059164 893.689037 512.000012 893.689037L512.000012 893.689037zM512.000012-67.914953c-248.975888 0-450.759472 201.783585-450.759472 450.759472 0 248.975888 201.783585 450.759472 450.759472 450.759472 248.975888 0 450.759472-201.783585 450.759472-450.759472C962.637855 133.868631 760.85427-67.914953 512.000012-67.914953L512.000012-67.914953zM512.000012 638.266778c-23.474522 0-42.570376-19.095855-42.570376-42.570376l0-276.707447c0-23.474522 19.095855-42.570376 42.570376-42.570376 23.474522 0 42.570376 19.095855 42.570376 42.570376L554.570389 595.696401C554.448759 619.170923 535.474534 638.266778 512.000012 638.266778L512.000012 638.266778zM512.000012 212.563013c-23.474522 0-42.570376-19.095855-42.570376-42.570376 0-23.474522 19.095855-42.570376 42.570376-42.570376 23.474522 0 42.570376 19.095855 42.570376 42.570376C554.448759 193.467158 535.474534 212.563013 512.000012 212.563013L512.000012 212.563013zM512.000012 212.563013"  horiz-adv-x="1024" />

    
    <glyph glyph-name="20160518gerenzhongxinzuocelanjibenxinxiicon" unicode="&#58912;" d="M511.601934 830.849164C264.679172 830.849164 64.482617 630.653633 64.482617 383.73087c0-246.972904 200.195531-447.113177 447.118294-447.113177 246.917646 0 447.113177 200.140273 447.113177 447.113177C958.715111 630.653633 758.51958 830.849164 511.601934 830.849164L511.601934 830.849164zM511.601934-33.189657c-230.203986 0-416.925644 186.602955-416.925644 416.919505 0 230.263337 186.721659 416.925644 416.925644 416.925644 230.197846 0 416.920528-186.662307 416.920528-416.925644C928.522462 153.413298 741.79978-33.189657 511.601934-33.189657L511.601934-33.189657zM511.601934-7.494439M626.061802 370.93238c52.592822 36.496216 87.246063 97.139387 87.246063 165.769464 0 111.278409-90.543156 201.76119-201.817472 201.76119-111.279433 0-201.816448-90.482781-201.816448-201.76119 0-68.689429 34.593889-129.273249 87.24197-165.769464-110.605074-45.381583-188.793854-154.029072-188.793854-280.675494 0-16.262382-0.169869-29.341259 16.038278-29.341259 16.151865 0 11.888771 13.078877 11.888771 29.341259 0 134.86357 98.948593 249.365394 275.442306 249.365394 170.623006 0 275.43719-114.502847 275.43719-249.365394 0-16.262382-1.193175-29.341259 14.95869-29.341259 16.208147 0 12.912078 13.078877 12.912078 29.341259C814.800397 216.903308 736.610594 325.606055 626.061802 370.93238L626.061802 370.93238zM334.997704 536.74994c0 97.308233 79.110779 176.556135 176.487573 176.556135 97.371678 0 176.549995-79.17934 176.549995-176.556135 0-97.369631-79.17934-176.481434-176.549995-176.481434C414.108482 360.267483 334.997704 439.379285 334.997704 536.74994L334.997704 536.74994zM368.356462 536.756079"  horiz-adv-x="1024" />

    
    <glyph glyph-name="chongzhiyouli" unicode="&#58896;" d="M649.456117 316.370717c7.329942 7.219425 11.460006 15.126512 11.460006 23.3805l0 25.097608c-3.435239-2.976798-7.330966-5.730515-11.460006-8.366551L649.456117 316.370717zM637.995087 307.204963l0 42.518373c-7.105838-3.670599-14.672164-7.106862-22.920012-10.201339l0-44.465724C623.893928 298.721755 631.459231 302.845679 637.995087 307.204963zM603.614046 460.085886l0-45.842071c7.912204 1.258667 15.59007 2.636037 22.920012 4.242627l0 45.724391C619.080296 462.722946 611.403452 461.233012 603.614046 460.085886zM660.916123 473.153506c-7.330966-2.406816-15.007809-4.583388-22.921036-6.4192l0-45.50131c8.248871 2.065032 15.702634 4.471848 22.921036 6.995321L660.916123 473.153506zM500.468874 271.906016l0 45.842071c-7.566326-0.458441-15.243169-0.805342-22.921036-0.805342l0-45.843094C485.343385 271.217331 492.903571 271.447575 500.468874 271.906016zM603.614046 290.702104l0 44.924165c-7.330966-2.406816-15.008832-4.583388-22.922059-6.418176l0-45.500287C588.940858 285.772838 596.39462 288.178631 603.614046 290.702104zM534.850939 275.112034l0 45.730531c-7.566326-0.917906-15.243169-1.718131-22.921036-2.294252l0-45.842071C519.842107 273.282363 527.397177 274.082588 534.850939 275.112034zM569.231981 456.073502l0-45.842071c7.913227 0.577145 15.46625 1.37737 22.920012 2.406816l0 45.730531C584.58669 457.450872 576.91087 456.650647 569.231981 456.073502zM569.231981 280.960229l0 45.725414c-7.453762-1.488911-15.131629-2.976798-22.921036-4.123924l0-45.842071C554.223149 277.977291 561.901015 279.353638 569.231981 280.960229zM397.324726 472.923262l0-44.811602c7.106862-2.518357 14.784728-4.812609 22.921036-6.878664l0 45.50131C412.450215 468.682681 404.543128 470.62901 397.324726 472.923262zM305.640584 306.858062c6.418176-4.242627 14.326287-8.136308 22.921036-11.80179l0 44.582381c-8.136308 3.089361-15.931854 6.30152-22.921036 9.965979L305.640584 306.858062zM660.233578 403.813255c-37.705763-12.031011-84.588537-18.219967-131.113153-18.219967-89.160669 0-178.89746 22.580275-204.572212 66.00939-26.127054-11.80179-41.829687-26.815739-41.829687-43.088354 0-37.934984 84.694961-68.763107 189.098799-68.763107C571.874157 339.751217 653.697721 368.060983 660.233578 403.813255zM362.942661 487.131869l0-42.74657c6.4192-4.242627 14.326287-8.136308 22.921036-11.80179l0 44.582381C377.727389 480.254228 369.931842 483.466386 362.942661 487.131869zM351.482655 494.00951c-4.123924 2.636037-8.024767 5.389754-11.461029 8.366551l0-25.097608c0-8.253988 4.123924-16.044418 11.461029-23.3805L351.482655 494.00951zM282.719548 339.751217c0-8.252964 4.123924-16.043395 11.461029-23.3805l0 40.111556c-4.123924 2.636037-8.024767 5.389754-11.461029 8.366551L282.719548 339.751217zM534.850939 454.467935l0-45.842071c7.789407 0.11768 15.355733 0.346901 22.920012 0.806365l0 45.842071C550.206672 454.815859 542.528805 454.467935 534.850939 454.467935zM500.468874 455.2743l0-45.730531c7.447623-0.459464 15.131629-0.688685 22.921036-0.800225l0 45.842071C515.713067 454.698179 508.0352 454.815859 500.468874 455.2743zM466.087832 458.480318l0-45.842071c7.448646-0.916882 15.126512-1.599428 22.921036-2.288113l0 45.842071C481.331002 456.880891 473.653135 457.563436 466.087832 458.480318zM466.087832 271.217331l0 45.842071c-7.676843 0.11154-15.35471 0.230244-22.921036 0.688685l0-45.730531C450.615443 271.559115 458.292286 271.328871 466.087832 271.217331zM431.706791 464.098269l0-45.611827c7.336082-1.605567 15.013949-2.982938 22.921036-4.242627l0 45.730531C446.83228 461.116355 439.154413 462.492702 431.706791 464.098269zM431.706791 154.894022c7.336082-1.599428 15.013949-2.988054 22.921036-4.241604L454.627826 196.382948c-7.795547 1.140986-15.473413 2.518357-22.921036 4.117784L431.706791 154.894022zM706.758194 190.305533c7.330966 7.219425 11.461029 15.120372 11.461029 23.3805l0 25.092491c-3.436262-2.976798-7.330966-5.730515-11.461029-8.360412L706.758194 190.305533zM672.377152 168.984948c8.819876 3.671623 16.385179 7.789407 22.921036 12.154831l0 42.518373c-7.106862-3.671623-14.673188-7.106862-22.921036-10.196223L672.377152 168.984948zM471.818347 248.067075c-44.12394 0-88.360444 5.617951-125.035738 16.502859 21.661346-29.340235 95.007841-50.884924 182.338838-50.884924 104.408955 0 189.098799 30.821983 189.098799 68.763107 0 15.355733-14.102183 29.569456-37.470403 40.912805C663.210375 273.965931 567.173089 248.067075 471.818347 248.067075zM637.995087 157.636482c8.248871 2.070148 15.702634 4.476965 22.921036 7.006578l0 44.924165c-7.330966-2.417049-15.007809-4.588505-22.921036-6.424316L637.995087 157.636482zM603.614046 150.652418c7.912204 1.254573 15.59007 2.642177 22.920012 4.241604l0 45.719274c-7.453762-1.476631-15.131629-2.976798-22.920012-4.118807L603.614046 150.652418zM672.377152 432.582485c8.819876 3.665483 16.385179 7.789407 22.921036 12.148691l0 42.518373c-7.106862-3.671623-14.673188-7.106862-22.921036-10.202363L672.377152 432.582485zM529.120424 614.803643c-104.403838 0-189.098799-30.828123-189.098799-68.762083 0-37.934984 84.694961-68.763107 189.098799-68.763107 104.408955 0 189.098799 30.828123 189.098799 68.763107C718.219223 583.975521 633.529379 614.803643 529.120424 614.803643zM500.468874 837.258131C247.856529 837.258131 43.074539 632.475118 43.074539 379.863796s204.783013-457.395358 457.395358-457.395358c252.612345 0 457.395358 204.783013 457.395358 457.395358S753.082242 837.258131 500.468874 837.258131zM741.140259 477.27743c0-27.851325-22.920012-49.39499-57.761542-64.639183 0.11154-1.37123 0.459464-2.747577 0.459464-4.123924l0-61.544705c34.605146-15.355733 57.302077-36.900422 57.302077-64.521502l0-68.763107c0-60.167335-106.692974-91.684142-212.018811-91.684142-105.321744 0-212.019835 31.516808-212.019835 91.684142l0 61.544705c-34.611286 15.355733-57.3031 36.899398-57.3031 64.521502L259.798513 408.514323c0 27.851325 22.921036 49.396014 57.761542 64.639183-0.11768 1.37123-0.458441 2.746554-0.458441 4.123924l0 68.763107c0 60.167335 106.698091 91.684142 212.019835 91.684142 105.32686 0 212.018811-31.516808 212.018811-91.684142L741.140259 477.27743zM706.758194 453.897953c7.330966 7.219425 11.461029 15.125489 11.461029 23.3805l0 25.097608c-3.436262-2.976798-7.330966-5.730515-11.461029-8.366551L706.758194 453.897953zM500.468874 145.952372c7.447623-0.459464 15.131629-0.694825 22.921036-0.806365l0 45.842071c-7.677866 0.11154-15.355733 0.23536-22.921036 0.694825L500.468874 145.952372zM340.021625 213.68501c0-8.259104 4.123924-16.049534 11.461029-23.3805l0 40.111556c-4.123924 2.629897-8.024767 5.383614-11.461029 8.360412L340.021625 213.68501zM362.942661 283.707806 362.942661 329.208093c-7.795547 1.947352-15.702634 3.895727-22.921036 6.189979l0-44.812625C347.128487 288.067091 354.806353 285.772838 362.942661 283.707806zM397.324726 276.718625l0 45.730531c-7.795547 1.140986-15.473413 2.518357-22.921036 4.123924l0-45.61285C381.739772 279.353638 389.417639 277.977291 397.324726 276.718625zM362.942661 180.792878c6.4192-4.242627 14.326287-8.136308 22.921036-11.80793l0 44.588521c-8.136308 3.089361-15.931854 6.300496-22.921036 9.960863L362.942661 180.792878zM466.087832 149.04071c7.448646-0.918929 15.126512-1.590218 22.921036-2.282996l0 45.842071c-7.677866 0.694825-15.355733 1.366114-22.921036 2.284019L466.087832 149.04071zM534.850939 145.033443c7.789407 0.11154 15.355733 0.346901 22.920012 0.806365l0 45.842071c-7.564279-0.458441-15.243169-0.806365-22.920012-0.806365L534.850939 145.033443zM397.324726 164.51924c7.106862-2.518357 14.784728-4.812609 22.921036-6.883781l0 45.506427c-7.795547 1.947352-15.702634 3.895727-22.921036 6.188956L397.324726 164.51924zM431.706791 272.822898l0 45.842071c-7.677866 0.688685-15.355733 1.37123-22.921036 2.289136l0-45.843094C416.233378 274.194128 423.911244 273.511583 431.706791 272.822898zM569.231981 146.646174c7.913227 0.571005 15.46625 1.36509 22.920012 2.39556l0 45.729507c-7.566326-0.916882-15.242146-1.713015-22.920012-2.284019L569.231981 146.646174z"  horiz-adv-x="1024" />

    
    <glyph glyph-name="shalou" unicode="&#59005;" d="M512 896C229.205333 896 0 666.794667 0 384 0 101.233778 229.205333-128 512-128 794.794667-128 1024 101.233778 1024 384 1024 666.794667 794.794667 896 512 896ZM743.424 105.756444C707.413333 101.688889 315.164444 95.715556 281.6 102.4 282.709333 142.421333 276.309333 322.531556 399.416889 399.246222 274.432 483.754667 276.138667 635.960889 281.6 665.6 301.738667 665.230222 704.028444 671.345778 742.4 665.6 746.894222 637.866667 736.227556 479.744 614.798222 400.184889 731.477333 326.343111 749.511111 157.866667 743.424 105.756444ZM332.8 614.4C332.032 586.666667 335.644444 468.138667 444.956444 423.424 444.956444 409.315556 444.956444 374.556444 444.956444 374.556444 392.874667 349.582222 339.000889 289.934222 332.8 153.6 418.304 155.392 691.2 155.847111 691.2 153.6 692.423111 200.760889 667.648 341.959111 569.713778 374.556444 569.713778 391.537778 570.652444 424.846222 570.652444 424.846222 613.262222 439.182222 692.081778 491.576889 691.2 614.4 590.677333 613.660444 391.964444 614.798222 332.8 614.4ZM550.741333 470.869333C537.827556 462.165333 523.235556 449.28 523.235556 401.123556 523.235556 334.250667 554.780444 326.542222 571.619556 314.794667 594.375111 298.894222 629.020444 255.488 631.381333 209.493333 631.381333 205.340444 413.155556 200.135111 382.805333 209.948444 395.861333 277.304889 426.837333 306.574222 457.756444 323.811556 484.579556 338.744889 491.434667 360.334222 491.434667 401.123556 491.434667 441.941333 480.056889 461.141333 467.712 468.024889 452.096 476.757333 415.658667 502.243556 406.528 526.364444 424.419556 535.580444 562.602667 545.592889 608.625778 526.364444 586.097778 488.192 561.863111 478.378667 550.741333 470.869333Z"  horiz-adv-x="1024" />

    
    <glyph glyph-name="daili" unicode="&#58886;" d="M979.289 584.729c-25.672 60.696-62.415 115.197-109.209 161.99-46.792 46.793-101.296 83.538-161.99 109.21C645.23 882.516 578.478 896 509.69 896s-135.538-13.483-198.4-40.07c-60.696-25.672-115.197-62.417-161.99-109.21-46.794-46.793-83.537-101.294-109.209-161.99C13.503 521.868 0.021 455.117 0.021 386.332c0-68.787 13.482-135.538 40.07-198.4 25.672-60.695 62.415-115.197 109.21-161.992 46.792-46.792 101.293-83.537 161.99-109.208 62.861-26.59 129.613-40.07 198.4-40.07s135.537 13.48 198.399 40.07c60.695 25.671 115.198 62.416 161.99 109.208 46.793 46.795 83.537 101.297 109.209 161.992 26.59 62.862 40.07 129.613 40.07 198.4 0.001 68.784-13.48 135.535-40.07 198.397zM509.69-80.691c-257.928 0-467.02 209.094-467.02 467.021 0 257.926 209.092 467.018 467.02 467.018 257.927 0 467.02-209.092 467.02-467.018 0-257.927-209.093-467.02-467.02-467.02z m129.7 380.622c51.794 8.549 91.318 53.933 91.318 108.64 0 60.805-48.82 110.096-109.04 110.096-9.292 0-18.16-1.532-26.773-3.74-9.505 71.028-71.29 125.959-146.437 125.959-81.732 0-147.986-64.86-147.986-144.867 0-71.985 53.642-131.696 123.93-142.945-95.569-13.661-169.541-107.645-169.541-221.56H642.05l-0.002 0.032h122.266c0 86.576-54.506 158.005-124.924 168.385zM479.02 131.546h-61.123c0 86.576 54.504 158.005 124.923 168.385-51.79 8.549-91.316 53.93-91.316 108.64 0 60.805 48.819 110.096 109.042 110.096 10.59 0 20.586-2.095 30.227-5.03-45.066-13.518-78.146-55.174-78.146-105.065 0-54.71 39.526-100.092 91.316-108.64-70.419-10.381-124.923-81.81-124.923-168.386z"  horiz-adv-x="1024" />

    
    <glyph glyph-name="jinyong" unicode="&#59491;" d="M827.3 698.1c-174.1 174.1-456.5 174.1-630.6 0s-174.1-456.5 0-630.6c174.1-174.1 456.5-174.1 630.6 0s174.1 456.4 0 630.6zM187.7 514.5c17.6 43.3 43.4 82.3 76.9 115.7 33.4 33.4 72.4 59.3 115.7 76.9 41.9 17 86.2 25.6 131.7 25.6 45.5 0 89.8-8.6 131.7-25.6 28.5-11.6 55.1-26.7 79.5-45.2L232.9 171.6c-18.5 24.4-33.7 51-45.2 79.5-17 41.9-25.6 86.2-25.6 131.7 0 45.5 8.6 89.8 25.6 131.7z m571.7-379.1C726 102 687 76.1 643.7 58.5c-41.9-17-86.2-25.6-131.7-25.6-45.5 0-89.8 8.6-131.7 25.6-28.5 11.6-55.1 26.7-79.5 45.2L791.1 594c18.5-24.4 33.7-51 45.2-79.5 17-41.9 25.6-86.2 25.6-131.7 0-45.5-8.6-89.8-25.6-131.7-17.6-43.4-43.4-82.3-76.9-115.7z"  horiz-adv-x="1024" />

    
    <glyph glyph-name="baobiaoguanli" unicode="&#58950;" d="M686.08 670.72h-5.12c-15.36 40.96-51.2 71.68-97.28 71.68h-143.36c-46.08 0-81.92-30.72-97.28-71.68h-5.12c-56.32 0-107.52-46.08-107.52-107.52v-430.08c0-61.44 46.08-107.52 107.52-107.52h353.28c56.32 0 107.52 46.08 107.52 107.52v430.08c-5.12 56.32-51.2 107.52-112.64 107.52z m-245.76 0h143.36c20.48 0 35.84-15.36 35.84-35.84 0-20.48-15.36-35.84-35.84-35.84h-138.24c-20.48 0-35.84 15.36-35.84 35.84-5.12 20.48 10.24 35.84 30.72 35.84z m281.6-537.6c0-20.48-15.36-35.84-35.84-35.84h-353.28c-20.48 0-35.84 15.36-35.84 35.84v430.08c0 20.48 15.36 35.84 35.84 35.84h5.12c15.36-40.96 51.2-71.68 97.28-71.68h143.36c46.08 0 81.92 30.72 97.28 71.68h5.12c20.48 0 35.84-15.36 35.84-35.84l5.12-430.08z m-353.28 250.88h281.6V455.68h-281.6v-71.68z m0-107.52h281.6v71.68h-281.6v-71.68z m0-107.52h209.92v71.68h-209.92v-71.68z"  horiz-adv-x="1024" />

    
    <glyph glyph-name="xiangxixinxi" unicode="&#58949;" d="M511.248 832.788c-247.184 0-447.55-200.365-447.55-447.55 0-247.152 200.366-447.552 447.55-447.552 247.151 0 447.552 200.4 447.552 447.552 0 247.185-200.4 447.55-447.552 447.55z m262.016-709.564c-34.05-34.05-73.691-60.804-117.826-79.446-45.636-19.289-94.142-29.108-144.19-29.108-50.068 0-98.58 9.82-144.212 29.108-44.114 18.642-83.755 45.395-117.803 79.446-34.047 34.05-60.79 73.69-79.44 117.823-19.29 45.637-29.08 94.141-29.08 144.191 0 50.069 9.79 98.58 29.08 144.212 18.653 44.113 45.393 83.753 79.44 117.803 34.052 34.06 73.692 60.78 117.803 79.44 45.628 19.304 94.144 29.08 144.212 29.08 50.048 0 98.555-9.776 144.19-29.08 44.135-18.662 83.774-45.384 117.826-79.44 34.047-34.053 60.802-73.693 79.443-117.803 19.293-45.629 29.108-94.144 29.108-144.212 0-50.05-9.816-98.59-29.108-144.19-18.641-44.134-45.395-83.774-79.443-117.824z m-443.752 319.52c-15.072 0-30.046-6.207-40.686-16.84C278.186 415.252 272 400.28 272 385.236c0-15.047 6.181-30.006 16.826-40.658 10.64-10.653 25.614-16.85 40.686-16.85 15.043 0 30.007 6.2 40.638 16.85 10.663 10.652 16.84 25.613 16.84 40.658 0 15.043-6.18 30.016-16.84 40.666-10.631 10.634-25.595 16.842-40.638 16.842z m181.736 0c-15.032 0-30.003-6.207-40.667-16.84-10.632-10.651-16.841-25.624-16.841-40.667 0-15.047 6.209-30.006 16.841-40.658 10.663-10.653 25.635-16.85 40.667-16.85 15.046 0 30.008 6.2 40.657 16.85 10.654 10.652 16.852 25.613 16.852 40.658 0 15.043-6.2 30.016-16.852 40.666-10.648 10.634-25.61 16.842-40.657 16.842z m181.76 0c-15.064 0-30.028-6.207-40.658-16.84-10.631-10.651-16.873-25.624-16.873-40.667 0-15.047 6.243-30.006 16.873-40.658 10.631-10.653 25.59-16.85 40.658-16.85 15.078 0 30.003 6.2 40.655 16.85 10.654 10.652 16.831 25.613 16.831 40.658 0 15.043-6.18 30.016-16.831 40.666-10.652 10.634-25.577 16.842-40.655 16.842z"  horiz-adv-x="1024" />

    
    <glyph glyph-name="mimazhaohui" unicode="&#59013;" d="M747.769283 552.178814c0 18.410107-6.965986 35.825073-19.902818 48.761905-12.936832 12.936832-29.854227 20.400389-48.264335 20.400389-18.410107 0-35.327502-6.965986-48.264334-20.400389l-124.392614-125.885325c-19.902818 8.458698-41.298348 12.439261-62.693878 12.439261-44.781341 0-87.07483-17.912536-118.919339-49.757046-65.6793-66.176871-65.6793-174.14966 0-240.32653 31.844509-32.34208 74.137998-49.757046 118.919339-49.757046 45.278912 0 87.07483 17.912536 118.919339 49.757046 31.844509 31.844509 49.259475 74.635569 49.259476 120.41205 0 19.902818-3.482993 39.308066-10.44898 58.215744l12.936832 12.936832 16.917395-16.917396c25.873664-25.873664 70.655005-25.873664 96.528669 0 26.371234 26.371234 26.371234 70.157434-0.49757 96.528669l-16.917396 17.414966 16.917396 17.414966c13.434402 13.434402 19.902818 30.351798 19.902818 48.761904z m-249.282799-293.566569c-14.429543-14.429543-34.829932-22.888241-56.225462-22.888241-20.897959 0-41.298348 8.458698-55.727891 22.888241-30.849368 31.346939-30.849368 82.099125 0 112.948494 29.854227 30.351798 82.099125 30.351798 111.953353 0 14.927114-14.927114 22.888241-34.829932 23.385811-56.723032-0.49757-21.39553-8.458698-41.298348-23.385811-56.225462zM940.32905 202.884354c-24.380952 12.936832-54.73275 4.478134-67.669583-19.405248-72.645287-130.86103-210.969874-211.965015-360.24101-211.965015-165.690962 0-310.981535 97.52381-376.163266 242.814383 4.478134-1.990282 9.453839-2.985423 14.429544-3.482993 13.434402-0.995141 26.371234 2.985423 36.322643 11.444121 20.897959 17.912536 23.385811 49.259475 5.970846 69.659864l-105.484937 124.392614c-13.931973 15.424684-35.825073 21.39553-54.23518 14.429543-19.902818-6.965986-32.83965-25.873664-32.83965-46.771623 0-282.122449 229.877551-512 512-512 185.59378 0 357.255588 101.006803 447.813411 263.214772 6.468416 11.941691 8.458698 25.376093 4.478134 38.312925-3.980564 12.439261-12.439261 22.888241-24.380952 29.356657z m-11.444121-21.8931zM512.418457 896c-185.59378 0-357.255588-101.006803-447.813411-263.214772-12.936832-24.380952-4.478134-54.73275 19.405247-67.669582 24.380952-12.936832 54.73275-4.478134 67.669583 19.405248 72.645287 130.86103 210.969874 211.965015 360.24101 211.965015 165.690962 0 310.981535-97.52381 376.163266-242.814383-16.917396 6.965986-36.322643 4.478134-50.752187-7.961128-20.897959-17.912536-23.385811-49.259475-5.970845-69.659864l105.484936-123.895043 0.497571-0.497571c9.951409-10.94655 23.385811-16.917396 37.317784-16.917395 5.970845 0 11.941691 0.995141 16.917396 2.985423 19.405248 6.965986 32.83965 25.873664 32.83965 46.771622C1024.916027 666.122449 795.038476 896 512.418457 896z"  horiz-adv-x="1053" />

    
    <glyph glyph-name="youxiang1" unicode="&#58913;" d="M875.008 800.256H148.992C73.472 800.256 12.8 739.328 12.8 664.064v-560.128c0-75.008 60.928-136.192 136.192-136.192h726.272c75.264 0 136.192 60.928 136.192 136.192V664.32c-0.256 75.264-61.184 135.936-136.448 135.936z m-221.44-363.264l311.04 242.176c0.768-4.864 1.28-9.728 1.28-14.848v-560.128c0-11.52-2.048-22.528-6.144-32.768L653.568 436.992zM148.992 754.944h726.272c28.16 0 53.76-12.8 70.4-33.28L506.368 379.648 78.848 721.92c16.64 20.224 41.728 33.024 70.144 33.024zM64 71.424c-3.84 10.24-6.144 21.248-6.144 32.768V664.32c0 5.12 0.512 10.24 1.28 15.104L370.688 430.08 64 71.424z m84.992-57.856c-21.76 0-41.728 7.68-57.344 20.224l314.368 367.872 85.76-68.864c8.192-6.656 19.968-6.656 27.904-0.256l97.792 76.544L931.84 33.536c-15.616-12.544-35.584-20.224-57.088-20.224H148.992v0.256z"  horiz-adv-x="1024" />

    
    <glyph glyph-name="chongzhimingxi" unicode="&#59192;" d="M921.359 362.716c-53.473 53.473-124.566 82.921-200.188 82.921s-146.717-29.448-200.188-82.921c-53.474-53.474-82.922-124.567-82.922-200.188 0-75.622 29.448-146.717 82.922-200.189 53.473-53.474 124.566-82.923 200.188-82.923s146.717 29.449 200.188 82.923c53.472 53.473 82.922 124.567 82.922 200.189 0 75.619-29.45 146.714-82.922 200.188zM721.171-71.138c-128.841 0-233.663 104.819-233.663 233.661 0 128.841 104.822 233.659 233.663 233.659 128.843 0 233.662-104.818 233.662-233.659S850.014-71.138 721.171-71.138zM105.966-46.761c-47.557 0-86.246 38.689-86.246 86.248V802.34c0 47.556 38.689 86.245 86.246 86.245h689.028c47.556 0 86.247-38.689 86.247-86.245v-321.298c-16.099 8.141-32.645 15.001-49.449 20.502V777.732c0 33.858-27.547 61.405-61.406 61.405H130.572c-33.858 0-61.405-27.546-61.405-61.405v-713.638c0-33.858 27.547-61.405 61.405-61.405h272.07c8.762-17.479 18.761-34.023 29.875-49.448l-326.551-0.002zM327.438 207.055H204.397c-10.984 0-19.92-8.937-19.92-19.92s8.936-19.919 19.92-19.919h123.041c10.984 0 19.921 8.936 19.921 19.919s-8.937 19.92-19.921 19.92zM450.48 585.556c10.984 0 19.92 8.937 19.92 19.921s-8.936 19.92-19.92 19.92h-29.298V679.3c0 10.985-8.936 19.921-19.92 19.921s-19.92-8.937-19.92-19.921v-53.903h-107.81V679.3c0 10.985-8.936 19.921-19.92 19.921-10.985 0-19.922-8.937-19.922-19.921v-53.903h-29.295c-10.984 0-19.921-8.936-19.921-19.92 0-10.984 8.937-19.921 19.921-19.921h103.121v-107.812h-103.12c-10.984 0-19.921-8.936-19.921-19.919 0-10.984 8.937-19.92 19.921-19.92h103.122v-103.121c0-10.983 8.936-19.92 19.92-19.92 10.984 0 19.921 8.937 19.921 19.921V437.906h103.12c10.984 0 19.921 8.936 19.921 19.92 0 10.983-8.937 19.919-19.921 19.919h-103.12V585.556H450.48zM573.521 610.163h123.041c10.984 0 19.921 8.936 19.921 19.92s-8.937 19.92-19.921 19.92H573.521c-10.985 0-19.922-8.936-19.922-19.92s8.937-19.92 19.922-19.92zM834.823 58.905H590.052c-11.834 0-21.461-9.271-21.461-20.668 0-11.333 9.627-20.554 21.461-20.554h244.884c11.834 0 21.461 9.221 21.461 20.619-0.149 11.361-9.827 20.603-21.574 20.603zM881.396 162.273c-4.074 3.844-9.445 5.961-15.124 5.961h-307.78c-11.835 0-21.463-9.271-21.463-20.668 0-11.396 9.628-20.667 21.463-20.667h307.891c11.835 0 21.463 9.271 21.463 20.666 0.001 5.56-2.29 10.784-6.45 14.708zM568.591 256.783c0-11.333 9.628-20.554 21.462-20.554h244.883c11.835 0 21.463 9.221 21.463 20.554 0 11.396-9.628 20.667-21.463 20.667H590.053c-11.834 0-21.462-9.271-21.462-20.667z"  horiz-adv-x="1024" />

    
    <glyph glyph-name="gou" unicode="&#58883;" d="M512-128C229.695-128 0 101.695 0 384S229.695 896 512 896c282.374 0 512-229.695 512-512s-229.626-512-512-512z m0 933.786C279.438 805.786 90.214 616.562 90.214 384c0-232.494 189.224-421.729 421.786-421.729 232.63 0 421.786 189.167 421.786 421.729 0 232.562-189.224 421.786-421.786 421.786z m-28.069-653.028a44.912 44.912 0 0 0-35.112-18.352h-0.978c-13.551 0-26.328 6.144-34.907 16.68l-150.676 186.97c-15.565 19.274-12.493 47.48 6.78 63.045 19.264 15.576 47.537 12.504 63.045-6.77l114.153-141.585 244.566 332.607c14.666 19.968 42.803 24.234 62.703 9.568 19.9-14.666 24.223-42.803 9.489-62.703L483.93 152.758z"  horiz-adv-x="1024" />

    
    <glyph glyph-name="tixianmingxi" unicode="&#58885;" d="M207.127273-51.2c-34.909091 0-62.836364 27.927273-62.836364 65.163636V754.036364c0 34.909091 27.927273 65.163636 62.836364 65.163636h588.8c34.909091 0 65.163636-27.927273 65.163636-65.163636v-384c0-20.945455 18.618182-37.236364 37.236364-37.236364 20.945455 0 39.563636 18.618182 39.563636 37.236364v395.636363c0 72.145455-55.854545 128-128 128H193.163636C121.018182 896 65.163636 840.145455 65.163636 768v-768c0-72.145455 55.854545-128 128-128h321.163637c20.945455 0 37.236364 18.618182 37.236363 37.236364 0 20.945455-18.618182 39.563636-37.236363 39.563636H207.127273zM949.527273 151.272727c2.327273 4.654545 2.327273 9.309091 2.327272 16.290909 0 4.654545 0 9.309091-2.327272 11.636364l-6.981818 13.963636-88.436364 88.436364c-16.290909 16.290909-39.563636 16.290909-53.527273 0-16.290909-16.290909-16.290909-37.236364 0-53.527273l25.6-25.6h-188.509091c-20.945455 0-39.563636-18.618182-39.563636-37.236363 0-20.945455 18.618182-39.563636 39.563636-39.563637h281.6c4.654545 0 9.309091 0 13.963637 2.327273 4.654545 6.981818 11.636364 16.290909 16.290909 23.272727zM605.090909 53.527273c-2.327273-4.654545-2.327273-9.309091-2.327273-16.290909 0-4.654545 0-9.309091 2.327273-11.636364 2.327273-4.654545 4.654545-9.309091 6.981818-11.636364l90.763637-88.436363c16.290909-16.290909 37.236364-16.290909 53.527272 0 16.290909 16.290909 16.290909 37.236364 0 53.527272l-25.6 25.6h188.509091c20.945455 0 39.563636 18.618182 39.563637 37.236364 0 20.945455-16.290909 34.909091-34.909091 34.909091H642.327273c-4.654545 0-9.309091 0-11.636364-2.327273-13.963636-4.654545-23.272727-13.963636-25.6-20.945454z m114.036364 523.636363H283.927273c-20.945455 0-39.563636 18.618182-39.563637 37.236364 0 20.945455 18.618182 39.563636 39.563637 39.563636h435.2c20.945455 0 39.563636-18.618182 39.563636-39.563636-2.327273-20.945455-20.945455-37.236364-39.563636-37.236364z m0-230.4H283.927273c-20.945455 0-39.563636 18.618182-39.563637 37.236364 0 20.945455 18.618182 37.236364 39.563637 37.236364h435.2c20.945455 0 39.563636-18.618182 39.563636-37.236364-2.327273-20.945455-20.945455-37.236364-39.563636-37.236364z m-256-230.4h-179.2c-20.945455 0-39.563636 18.618182-39.563637 37.236364s18.618182 39.563636 39.563637 39.563636h179.2c20.945455 0 39.563636-18.618182 39.563636-39.563636s-20.945455-37.236364-39.563636-37.236364z"  horiz-adv-x="1024" />

    
    <glyph glyph-name="iconcopy" unicode="&#59009;" d="M948.402087 225.947826l44.343652 4.452174-40.069565 400.695652a22.26087 22.26087 0 0 1-22.171826 20.034783H845.913043v-44.521739h64.467479l38.021565-380.66087zM22.26087 228.173913v-311.652174a22.26087 22.26087 0 0 1 22.260869-22.260869h934.956522a22.26087 22.26087 0 0 1 22.260869 22.260869v311.652174a22.26087 22.26087 0 0 1-22.260869 22.26087h-8.904348v-22.26087h-13.356522v-289.391304h-890.434782v271.582608a22.26087 22.26087 0 0 1 8.815304 15.582609l38.021565 380.66087H178.086957v44.521739H93.495652a22.26087 22.26087 0 0 1-22.171826-20.034783L32.946087 247.184696A22.26087 22.26087 0 0 1 22.26087 228.173913z m315.392-145.897739A22.26087 22.26087 0 0 1 356.173913 72.347826h314.412522a22.26087 22.26087 0 0 1 18.521043 9.928348L771.561739 205.913043H979.478261v44.52174h-219.848348a22.26087 22.26087 0 0 1-18.521043-9.928348L658.69913 116.869565H368.105739l-82.454261 123.63687A22.26087 22.26087 0 0 1 267.130435 250.434783H44.521739v-44.52174h210.67687l82.454261-123.636869zM200.347826 829.217391v-400.695652h623.304348v400.695652h-623.304348zM178.086957 873.73913h667.826086a22.26087 22.26087 0 0 0 22.26087-22.260869v-445.217391a22.26087 22.26087 0 0 0-22.26087-22.26087H178.086957a22.26087 22.26087 0 0 0-22.26087 22.26087V851.478261A22.26087 22.26087 0 0 0 178.086957 873.73913zM578.782609 695.652174h133.565217a22.26087 22.26087 0 1 1 0 44.521739h-133.565217a22.26087 22.26087 0 1 1 0-44.521739zM578.782609 606.608696h133.565217a22.26087 22.26087 0 1 1 0 44.521739h-133.565217a22.26087 22.26087 0 1 1 0-44.521739zM578.782609 517.565217h133.565217a22.26087 22.26087 0 1 1 0 44.52174h-133.565217a22.26087 22.26087 0 1 1 0-44.52174zM512 406.26087a155.826087 155.826087 0 0 1-311.652174 0 22.26087 22.26087 0 1 1 44.521739 0 111.304348 111.304348 0 1 0 222.608696 0 22.26087 22.26087 0 1 1 44.521739 0zM356.173913 562.086957a111.304348 111.304348 0 1 0 0 222.608695 111.304348 111.304348 0 0 0 0-222.608695z m0 44.521739a66.782609 66.782609 0 1 1 0 133.565217 66.782609 66.782609 0 0 1 0-133.565217zM222.608696 294.956522h578.782608a22.26087 22.26087 0 1 1 0 44.521739H222.608696a22.26087 22.26087 0 1 1 0-44.521739z"  horiz-adv-x="1024" />

    
    <glyph glyph-name="dakuan" unicode="&#58968;" d="M811.4 79.3c-82 0-148.4 66.4-148.4 148.4s66.4 148.4 148.4 148.4 148.4-66.4 148.4-148.4-66.4-148.4-148.4-148.4z m40 217.2l-28-42.9c-7.5-11.6-12-19.4-13.7-23.2h-0.5c-4.9 9.3-18.8 31.4-41.6 66.1h-26.3l48.9-70h-40.1V211h47v-21.3h-47V174h47v-31h23.3v31h45.3v15.7h-45.3V211h45.3v15.5h-38.9l49.4 70h-24.8z m-635.6 11.9v-98.9H167v98.9h48.8z m97.6 0v-98.9h-48.8v98.9h48.8z m97.7 0v-98.9h-48.8v98.9h48.8z m390.5 98.5v0.5H118.2v-222.6c0-13.4 11.2-24.7 24.4-24.7h480.8c4.9-17.6 12.2-34.2 21.5-49.5H142.6c-40.3 0-73.2 33.4-73.2 74.2V630c0 40.8 32.9 74.2 73.2 74.2h634.6c40.3 0 73.2-33.4 73.2-74.2v-226.5c-12.6 2.6-25.7 3.9-39.1 3.9-3.2-0.1-6.4-0.4-9.7-0.5z m0 223.1c0 13.4-11.2 24.7-24.4 24.7H142.6c-13.2 0-24.4-11.3-24.4-24.7v-74.2h683.4V630z"  horiz-adv-x="1024" />

    


  </font>
</defs>
</svg>
